<svg id="Capa_1" enable-background="new 0 0 512 512" height="512" viewBox="0 0 512 512" width="512" xmlns="http://www.w3.org/2000/svg"><g><path d="m371.21 96.55c4.143 0 7.5-3.358 7.5-7.5v-6.87c0-15.502-4.341-30.595-12.553-43.645-2.205-3.506-6.838-4.559-10.342-2.353-3.506 2.206-4.56 6.836-2.354 10.342 6.593 10.477 10.13 22.575 10.245 35.025h-202.186c-7.295 0-13.229-5.935-13.229-13.23v-40.089c0-7.295 5.935-13.23 13.229-13.23h135c13.801 0 27.053 4.148 38.325 11.995 3.4 2.368 8.075 1.529 10.44-1.87 2.366-3.399 1.529-8.074-1.87-10.44-13.8-9.607-30.016-14.685-46.895-14.685h-135c-15.565 0-28.229 12.664-28.229 28.23v40.09c0 14.35 10.765 26.225 24.642 27.994v43.332c-13.875 1.769-24.639 13.643-24.639 27.991v40.097c0 14.348 10.762 26.221 24.637 27.991v24.886c0 4.142 3.357 7.5 7.5 7.5s7.5-3.358 7.5-7.5v-24.651h41.171c2.027 0 4.013.178 5.949.502v74.927c0 12.991-10.568 23.56-23.56 23.56s-23.561-10.569-23.561-23.56v-20.78c0-4.142-3.357-7.5-7.5-7.5s-7.5 3.358-7.5 7.5v20.78c0 21.262 17.298 38.56 38.561 38.56 21.262 0 38.56-17.298 38.56-38.56v-68.651c9.033 6.521 14.929 17.132 14.929 29.099v186.771c0 29.44 23.951 53.391 53.391 53.391s53.391-23.951 53.391-53.391v-169.9c0-22.926-8.662-44.599-24.106-61.075 27.978-13.604 46.054-41.934 46.054-73.855v-6.868c0-4.142-3.357-7.5-7.5-7.5h-136.159v-42.86zm-54.563 121.342c-2.636.827-4.604 3.036-5.122 5.749-.519 2.713.496 5.492 2.642 7.232 17.535 14.223 27.593 35.303 27.593 57.834v169.901c0 21.168-17.222 38.391-38.391 38.391s-38.391-17.222-38.391-38.391v-186.77c0-28.054-22.824-50.877-50.878-50.877h-52.58c-7.293 0-13.227-5.934-13.227-13.227v-40.097c0-7.293 5.934-13.227 13.227-13.227h202.185c-.268 29.259-19.11 54.72-47.058 63.482zm-96.596-78.482h-47.119v-42.86h47.119z"/></g></svg>